HIERARCHY
ROOT Hips
{
	OFFSET 0.0000 0.0000 0.0000
	CHANNELS 6 Xposition Yposition Zposition Zrotation Xrotation Yrotation
	JOINT Spine1
	{
		OFFSET -0.0137 5.0038 -0.0537
		CHANNELS 3 Zrotation Xrotation Yrotation
		JOINT Spine2
		{
			OFFSET -0.0000 7.1253 -0.0298
			CHANNELS 3 Zrotation Xrotation Yrotation
			JOINT Chest
			{
				OFFSET -0.0000 7.5501 -0.8160
				CHANNELS 3 Zrotation Xrotation Yrotation
				JOINT Neck1
				{
					OFFSET -0.1817 26.3113 -0.5533
					CHANNELS 3 Zrotation Xrotation Yrotation
					JOINT Neck2
					{
						OFFSET -0.0000 7.7094 2.3026
						CHANNELS 3 Zrotation Xrotation Yrotation
						JOINT Head
						{
							OFFSET -0.0000 6.1289 1.9537
							CHANNELS 3 Zrotation Xrotation Yrotation
							JOINT Jaw
							{
								OFFSET 0.0026 0.4756 3.0949
								CHANNELS 3 Zrotation Xrotation Yrotation
								End Site
								{
									OFFSET 0.0 1.0 0.0
								}
							}
							JOINT LeftEye
							{
								OFFSET 3.2064 5.3802 7.5869
								CHANNELS 3 Zrotation Xrotation Yrotation
								End Site
								{
									OFFSET 0.0 1.0 0.0
								}
							}
							JOINT RightEye
							{
								OFFSET -3.2224 5.3619 7.5582
								CHANNELS 3 Zrotation Xrotation Yrotation
								End Site
								{
									OFFSET 0.0 1.0 0.0
								}
							}
						}
					}
				}
				JOINT LeftShoulder
				{
					OFFSET 1.6217 23.2372 5.1134
					CHANNELS 3 Zrotation Xrotation Yrotation
					JOINT LeftArm
					{
						OFFSET 14.9198 0.0000 -5.5023
						CHANNELS 3 Zrotation Xrotation Yrotation
						JOINT LeftForeArm
						{
							OFFSET 28.7393 0.0000 -0.0026
							CHANNELS 3 Zrotation Xrotation Yrotation
							JOINT LeftHand
							{
								OFFSET 27.0940 -0.0000 0.0026
								CHANNELS 3 Zrotation Xrotation Yrotation
								JOINT LeftHandThumbEnd
								{
									OFFSET 12.2686 -3.2202 4.8331
									CHANNELS 3 Zrotation Xrotation Yrotation
									End Site
									{
										OFFSET 0.0 1.0 0.0
									}
								}
								JOINT LeftHandMiddleEnd
								{
									OFFSET 19.0120 -0.3129 -0.0340
									CHANNELS 3 Zrotation Xrotation Yrotation
									End Site
									{
										OFFSET 0.0 1.0 0.0
									}
								}
							}
						}
					}
				}
				JOINT RightShoulder
				{
					OFFSET -1.3801 23.1803 5.2142
					CHANNELS 3 Zrotation Xrotation Yrotation
					JOINT RightArm
					{
						OFFSET -15.0372 0.0000 -5.5456
						CHANNELS 3 Zrotation Xrotation Yrotation
						JOINT RightForeArm
						{
							OFFSET -28.7366 0.0000 -0.0026
							CHANNELS 3 Zrotation Xrotation Yrotation
							JOINT RightHand
							{
								OFFSET -27.1336 -0.0000 0.0026
								CHANNELS 3 Zrotation Xrotation Yrotation
								JOINT RightHandThumbEnd
								{
									OFFSET -12.2642 -3.2115 4.8040
									CHANNELS 3 Zrotation Xrotation Yrotation
									End Site
									{
										OFFSET 0.0 1.0 0.0
									}
								}
								JOINT RightHandMiddleEnd
								{
									OFFSET -19.0006 -0.3066 -0.0316
									CHANNELS 3 Zrotation Xrotation Yrotation
									End Site
									{
										OFFSET 0.0 1.0 0.0
									}
								}
							}
						}
					}
				}
			}
		}
	}
	JOINT LeftLeg
	{
		OFFSET 10.0432 -8.4345 2.5957
		CHANNELS 3 Zrotation Xrotation Yrotation
		JOINT LeftShin
		{
			OFFSET -0.0000 -43.2218 -0.8029
			CHANNELS 3 Zrotation Xrotation Yrotation
			JOINT LeftFoot
			{
				OFFSET 0.0000 -42.1551 -3.4815
				CHANNELS 3 Zrotation Xrotation Yrotation
				JOINT LeftToeBase
				{
					OFFSET 0.0000 -5.0595 13.2315
					CHANNELS 3 Zrotation Xrotation Yrotation
					End Site
					{
						OFFSET 0.0 1.0 0.0
					}
				}
			}
		}
	}
	JOINT RightLeg
	{
		OFFSET -10.0473 -8.2953 2.6203
		CHANNELS 3 Zrotation Xrotation Yrotation
		JOINT RightShin
		{
			OFFSET 0.0000 -43.3622 -0.8056
			CHANNELS 3 Zrotation Xrotation Yrotation
			JOINT RightFoot
			{
				OFFSET 0.0000 -42.1174 -3.4784
				CHANNELS 3 Zrotation Xrotation Yrotation
				JOINT RightToeBase
				{
					OFFSET -0.0000 -5.0796 13.2842
					CHANNELS 3 Zrotation Xrotation Yrotation
					End Site
					{
						OFFSET 0.0 1.0 0.0
					}
				}
			}
		}
	}
}
MOTION
Frames: 9
Frame Time: 0.033333
0.4974 98.4766 0.7519 1.1870 -4.9469 -2.9740 -1.9698 0.1590 0.1027 -0.7006 -4.8663 0.2868 -0.1624 11.3873 -1.6588 -7.8127 -4.4898 5.2706 -0.7737 -3.8202 -1.2894 -2.1251 -19.2724 -1.7468 0.0578 0.0718 -0.0801 0.6012 -10.5380 -3.9615 -0.4945 -10.5458 3.7832 -8.1946 14.5013 -5.8829 -64.2803 4.1689 -19.8027 -0.3170 -0.2087 -38.6488 11.7754 3.0748 1.1281 -15.2712 10.9898 16.0370 -60.6297 2.1020 1.9053 15.2511 11.4813 17.2031 50.9380 -35.5890 -19.0086 0.7077 0.8281 60.8624 -52.3086 -55.6526 33.6231 15.3572 7.1573 -15.3373 49.6588 -3.1086 -5.0209 7.8746 -0.1436 19.5454 -0.1146 12.4834 -0.3912 -9.9448 -7.4981 -0.4245 1.6116 -0.4056 -2.2382 -12.6039 -6.0724 -26.7551 0.1129 16.3487 0.3310 9.3784 -8.3867 4.6672 -1.4165 -0.1750 0.7328
0.5667 98.4820 0.8207 1.2170 -4.9812 -3.0519 -1.9923 0.1139 0.0611 -0.6975 -4.8763 0.3158 -0.1734 11.3169 -1.6633 -7.8117 -4.5491 5.2132 -0.7575 -3.8276 -1.2684 -2.1094 -19.2703 -1.7116 0.0565 0.0709 -0.0836 0.5974 -10.5359 -3.9665 -0.4936 -10.5475 3.7794 -8.1564 14.4834 -5.8604 -64.3144 4.2873 -19.7993 -0.2395 -0.2048 -38.7063 11.7668 3.0337 1.0636 -15.2359 10.9458 15.9941 -60.6173 2.0713 1.9057 15.2334 11.5420 17.1963 51.2753 -35.0961 -18.7671 0.5747 0.8639 61.0728 -53.0647 -55.9908 34.4258 15.3910 7.1938 -15.3159 49.6569 -3.0476 -4.9505 7.8361 0.0516 19.6135 -0.1123 12.2929 -0.3904 -9.9464 -7.4458 -0.3621 1.6128 -0.3877 -2.2116 -12.6963 -5.9896 -26.6836 0.1210 16.2173 0.3324 9.4856 -8.3277 4.6594 -1.4154 -0.1826 0.7410
0.6377 98.5013 0.8528 1.2442 -5.0086 -3.1130 -2.0143 0.0722 0.0455 -0.7077 -4.8854 0.3135 -0.1822 11.2434 -1.6651 -7.7290 -4.5970 5.1502 -0.7153 -3.8295 -1.2605 -2.1016 -19.2522 -1.7022 0.0589 0.0718 -0.0798 0.5972 -10.5323 -3.9609 -0.4884 -10.5446 3.7794 -8.0588 14.4484 -5.8229 -64.3844 4.4089 -19.7373 -0.2156 -0.2139 -38.7276 11.7467 3.0816 1.0134 -15.2191 10.9412 15.9675 -60.5958 2.0719 1.9102 15.2244 11.5928 17.2024 51.7028 -34.6689 -18.5922 0.5074 0.9153 61.3735 -53.6087 -56.2612 35.0076 15.4007 7.2240 -15.3305 49.6429 -2.9625 -4.8894 7.7938 0.2431 19.6563 -0.1132 12.0840 -0.4002 -9.9611 -7.3656 -0.2728 1.6155 -0.3693 -2.1798 -12.7708 -5.8997 -26.6241 0.1179 16.0668 0.3386 9.5844 -8.2615 4.6056 -1.4155 -0.1907 0.7567
0.6876 98.5331 0.9039 1.2668 -5.0362 -3.1137 -2.0415 0.0408 0.0470 -0.7205 -4.9074 0.2959 -0.1805 11.1716 -1.6434 -7.6078 -4.6255 5.0567 -0.6818 -3.8048 -1.2579 -2.0752 -19.2627 -1.7575 0.0621 0.0760 -0.0778 0.5933 -10.5211 -3.9592 -0.4779 -10.5333 3.7797 -7.9254 14.4509 -5.8256 -64.4742 4.5042 -19.6709 -0.1794 -0.2152 -38.7261 11.7007 3.2318 1.0396 -15.1994 10.9578 15.9569 -60.5953 2.0901 1.9160 15.2619 11.6417 17.2109 52.2070 -34.2821 -18.5313 0.4568 1.0163 61.7983 -54.1832 -56.5932 35.6309 15.4039 7.2234 -15.3569 49.6567 -2.9310 -4.8402 7.7428 0.4123 19.6203 -0.1131 11.9038 -0.3977 -9.9837 -7.2827 -0.1753 1.6189 -0.3501 -2.1691 -12.8447 -5.8036 -26.6256 0.1098 15.9141 0.3383 9.6741 -8.1898 4.5697 -1.4189 -0.2282 0.7632
0.7248 98.5630 0.9328 1.2835 -5.0625 -3.0654 -2.0788 0.0063 0.0418 -0.7303 -4.9166 0.3024 -0.1660 11.0990 -1.6272 -7.4870 -4.6359 4.9751 -0.6767 -3.7801 -1.2994 -2.0314 -19.3149 -1.8911 0.0594 0.0799 -0.0849 0.5843 -10.5138 -3.9662 -0.4744 -10.5262 3.7722 -7.7469 14.4530 -5.8333 -64.5777 4.5658 -19.6066 -0.1999 -0.2240 -38.6822 11.6577 3.4360 1.0934 -15.2172 10.9872 15.9784 -60.6152 2.1068 1.9491 15.3313 11.6465 17.2128 52.7368 -33.9245 -18.5025 0.3544 1.1256 62.2883 -54.8978 -57.0053 36.4529 15.4474 7.2219 -15.3891 49.7226 -2.9021 -4.8252 7.6862 0.5575 19.5162 -0.1093 11.7441 -0.3959 -9.9733 -7.1975 -0.1005 1.6205 -0.3447 -2.1691 -12.9102 -5.7113 -26.6721 0.1021 15.7731 0.3426 9.7231 -8.1134 4.5177 -1.4211 -0.2811 0.7663
0.7772 98.5741 0.9615 1.2907 -5.0878 -2.9945 -2.1165 -0.0180 0.0565 -0.7478 -4.9255 0.3094 -0.1393 11.0495 -1.6137 -7.3597 -4.6583 4.9330 -0.7103 -3.7613 -1.3656 -2.0097 -19.3862 -2.0643 0.0561 0.0811 -0.0910 0.5764 -10.5041 -3.9686 -0.4734 -10.5170 3.7624 -7.5756 14.4629 -5.8170 -64.6509 4.6109 -19.5319 -0.2405 -0.2304 -38.6300 11.5973 3.6144 1.1633 -15.2426 11.0323 15.9983 -60.6507 2.1245 1.9903 15.4375 11.6382 17.2556 53.2977 -33.7298 -18.5879 0.3178 1.2053 62.7454 -55.7146 -57.3507 37.4243 15.5305 7.1884 -15.4066 49.7963 -2.9092 -4.8260 7.6490 0.6430 19.3937 -0.1107 11.6765 -0.4022 -9.9217 -7.1668 -0.0524 1.6209 -0.3361 -2.1715 -12.9667 -5.6439 -26.7512 0.0991 15.6748 0.3472 9.7592 -8.0745 4.4619 -1.4249 -0.3389 0.7741
0.8181 98.5735 0.9616 1.2919 -5.1055 -2.8966 -2.1486 -0.0388 0.0788 -0.7588 -4.9202 0.3189 -0.1030 11.0272 -1.5687 -7.2644 -4.7265 4.9140 -0.7691 -3.7526 -1.4780 -2.0028 -19.4411 -2.2406 0.0504 0.0808 -0.0963 0.5725 -10.5094 -3.9716 -0.4813 -10.5219 3.7560 -7.4235 14.4602 -5.7984 -64.6942 4.6262 -19.4730 -0.2995 -0.2445 -38.5768 11.5314 3.6913 1.2143 -15.2685 11.0643 16.0122 -60.6689 2.1335 2.0238 15.5053 11.5936 17.2940 53.8405 -33.6083 -18.6948 0.2750 1.2524 63.1030 -56.5969 -57.6357 38.4730 15.6126 7.1475 -15.4137 49.8652 -2.9276 -4.8614 7.6047 0.6337 19.2612 -0.1121 11.7614 -0.3995 -9.8521 -7.2303 -0.0226 1.6192 -0.3308 -2.1768 -13.0148 -5.6284 -26.8692 0.0999 15.6684 0.3498 9.7911 -8.0986 4.4402 -1.4298 -0.3696 0.7916
0.8508 98.5527 0.9606 1.2826 -5.1184 -2.7855 -2.1695 -0.0479 0.1047 -0.7689 -4.9030 0.3430 -0.0605 11.0149 -1.4964 -7.2185 -4.8271 4.9085 -0.8213 -3.7538 -1.6340 -2.0036 -19.5048 -2.3844 0.0451 0.0809 -0.1027 0.5717 -10.5169 -3.9755 -0.4918 -10.5258 3.7486 -7.3048 14.4632 -5.7888 -64.7104 4.6421 -19.3917 -0.3307 -0.2575 -38.5386 11.4425 3.6885 1.2214 -15.2804 11.0731 16.0029 -60.6587 2.1164 2.0479 15.5473 11.5417 17.3371 54.4248 -33.5920 -18.8762 0.2608 1.2749 63.3292 -57.5116 -57.7996 39.5786 15.7135 7.1195 -15.4082 49.9226 -2.9233 -4.8927 7.5706 0.5418 19.1474 -0.1093 11.9547 -0.3909 -9.7800 -7.3441 -0.0220 1.6178 -0.2970 -2.1913 -13.0431 -5.6482 -26.9856 0.1025 15.7280 0.3483 9.7983 -8.1724 4.4447 -1.4328 -0.3938 0.8062
0.8819 98.5194 0.9162 1.2625 -5.1307 -2.6485 -2.1848 -0.0472 0.1204 -0.7753 -4.8785 0.3937 -0.0152 11.0146 -1.4321 -7.2027 -4.9277 4.8919 -0.8582 -3.7577 -1.7970 -2.0260 -19.5948 -2.5122 0.0420 0.0849 -0.1080 0.5715 -10.5111 -3.9769 -0.4976 -10.5188 3.7410 -7.1969 14.4392 -5.7515 -64.7180 4.6467 -19.2763 -0.3882 -0.2672 -38.4457 11.3457 3.6673 1.1895 -15.2838 11.0457 15.9908 -60.5664 2.0814 2.0736 15.5752 11.4960 17.4158 54.9551 -33.6944 -19.0785 0.2913 1.3066 63.3473 -58.6666 -57.9931 40.9108 15.8134 7.1059 -15.4159 49.9911 -2.9281 -4.9505 7.5548 0.3645 19.0881 -0.1090 12.2613 -0.3887 -9.6846 -7.5136 -0.0999 1.6162 -0.2404 -2.2074 -13.0625 -5.6995 -27.1327 0.1098 15.8309 0.3599 9.8024 -8.2568 4.4632 -1.4350 -0.3901 0.8167
